<?xml version="1.0" encoding="UTF-8" standalone="no"?>
<!DOCTYPE svg PUBLIC "-//W3C//DTD SVG 1.1//EN" "http://www.w3.org/Graphics/SVG/1.1/DTD/svg11.dtd">
<svg version="1.1" xmlns="http://www.w3.org/2000/svg" xmlns:xlink="http://www.w3.org/1999/xlink" preserveAspectRatio="xMidYMid meet" viewBox="0 0 640 640" width="640" height="640"><defs><path d="M620 20C620 20 620 20 620 20C620 380 620 580 620 620C620 620 620 620 620 620C260 620 60 620 20 620C20 620 20 620 20 620C20 260 20 60 20 20C20 20 20 20 20 20C380 20 580 20 620 20Z" id="a21P3TdBws"></path><path d="M540 440L100 440" id="aAiZnzYae"></path><path d="M301.01 598.72L100 440" id="d2fCvpjZ"></path><path d="M300 280L100 440" id="d44xhQh6xu"></path><path d="M540 200L100 200" id="a2vqSZebUb"></path><path d="M540 199.36L338.99 40.64" id="ascJfF353"></path><path d="M540 200L340 360" id="a286tYQO6w"></path></defs><g><g><g><use xlink:href="#a21P3TdBws" opacity="1" fill="#000000" fill-opacity="0"></use><g><use xlink:href="#a21P3TdBws" opacity="1" fill-opacity="0" stroke="#000000" stroke-width="1" stroke-opacity="1"></use></g></g><g><g><use xlink:href="#aAiZnzYae" opacity="1" fill-opacity="0" stroke="#000000" stroke-width="2" stroke-opacity="1"></use></g></g><g><use xlink:href="#d2fCvpjZ" opacity="1" fill="#41dfb0" fill-opacity="0"></use><g><use xlink:href="#d2fCvpjZ" opacity="1" fill-opacity="0" stroke="#000000" stroke-width="2" stroke-opacity="1"></use></g></g><g><g><use xlink:href="#d44xhQh6xu" opacity="1" fill-opacity="0" stroke="#000000" stroke-width="2" stroke-opacity="1"></use></g></g><g><g><use xlink:href="#a2vqSZebUb" opacity="1" fill-opacity="0" stroke="#000000" stroke-width="2" stroke-opacity="1"></use></g></g><g><use xlink:href="#ascJfF353" opacity="1" fill="#41dfb0" fill-opacity="0"></use><g><use xlink:href="#ascJfF353" opacity="1" fill-opacity="0" stroke="#000000" stroke-width="2" stroke-opacity="1"></use></g></g><g><g><use xlink:href="#a286tYQO6w" opacity="1" fill-opacity="0" stroke="#000000" stroke-width="2" stroke-opacity="1"></use></g></g></g></g></svg>