<?xml version="1.0" encoding="UTF-8" standalone="no"?>
<!DOCTYPE svg PUBLIC "-//W3C//DTD SVG 1.1//EN" "http://www.w3.org/Graphics/SVG/1.1/DTD/svg11.dtd">
<svg version="1.1" xmlns="http://www.w3.org/2000/svg" xmlns:xlink="http://www.w3.org/1999/xlink" preserveAspectRatio="xMidYMid meet" viewBox="0 0 640 640" width="640" height="640"><defs><path d="M620 20C620 20 620 20 620 20C620 380 620 580 620 620C620 620 620 620 620 620C260 620 60 620 20 620C20 620 20 620 20 620C20 260 20 60 20 20C20 20 20 20 20 20C380 20 580 20 620 20Z" id="eHzKNp0WS"></path><path d="M540 440L100 440" id="a1nDJH0Hff"></path><path d="M540 438.72L338.99 280" id="d3dUwX8g5G"></path><path d="M540 440L340 600" id="brntsEngH"></path><path d="M540 200L100 200" id="b2zPSrCZoo"></path><path d="M301.01 358.72L100 200" id="b3zLi9QYw1"></path><path d="M300 40L100 200" id="fiV8dgJB8"></path></defs><g><g><g><use xlink:href="#eHzKNp0WS" opacity="1" fill="#000000" fill-opacity="0"></use><g><use xlink:href="#eHzKNp0WS" opacity="1" fill-opacity="0" stroke="#000000" stroke-width="1" stroke-opacity="1"></use></g></g><g><g><use xlink:href="#a1nDJH0Hff" opacity="1" fill-opacity="0" stroke="#000000" stroke-width="2" stroke-opacity="1"></use></g></g><g><use xlink:href="#d3dUwX8g5G" opacity="1" fill="#41dfb0" fill-opacity="0"></use><g><use xlink:href="#d3dUwX8g5G" opacity="1" fill-opacity="0" stroke="#000000" stroke-width="2" stroke-opacity="1"></use></g></g><g><g><use xlink:href="#brntsEngH" opacity="1" fill-opacity="0" stroke="#000000" stroke-width="2" stroke-opacity="1"></use></g></g><g><g><use xlink:href="#b2zPSrCZoo" opacity="1" fill-opacity="0" stroke="#000000" stroke-width="2" stroke-opacity="1"></use></g></g><g><use xlink:href="#b3zLi9QYw1" opacity="1" fill="#41dfb0" fill-opacity="0"></use><g><use xlink:href="#b3zLi9QYw1" opacity="1" fill-opacity="0" stroke="#000000" stroke-width="2" stroke-opacity="1"></use></g></g><g><g><use xlink:href="#fiV8dgJB8" opacity="1" fill-opacity="0" stroke="#000000" stroke-width="2" stroke-opacity="1"></use></g></g></g></g></svg>