<?xml version="1.0" encoding="UTF-8" standalone="no"?>
<!DOCTYPE svg PUBLIC "-//W3C//DTD SVG 1.1//EN" "http://www.w3.org/Graphics/SVG/1.1/DTD/svg11.dtd">
<svg version="1.1" xmlns="http://www.w3.org/2000/svg" xmlns:xlink="http://www.w3.org/1999/xlink" preserveAspectRatio="xMidYMid meet" viewBox="0 0 640 640" width="640" height="640"><defs><path d="M620 20C620 20 620 20 620 20C620 380 620 580 620 620C620 620 620 620 620 620C260 620 60 620 20 620C20 620 20 620 20 620C20 260 20 60 20 20C20 20 20 20 20 20C380 20 580 20 620 20Z" id="a6Df9IaYQz"></path><path d="M200 540L200 100" id="b2vYRrJQqN"></path><path d="M200 100L40 300" id="a1EMQq3lN"></path><path d="M200 100L360 300" id="aWsAOvGJe"></path><path d="M440 540L440 100" id="dE6NQoFFN"></path><path d="M600 340L440 540" id="a6aFb2rdmy"></path><path d="M280 340L440 540" id="adXs7Az47"></path></defs><g><g><g><use xlink:href="#a6Df9IaYQz" opacity="1" fill="#000000" fill-opacity="0"></use><g><use xlink:href="#a6Df9IaYQz" opacity="1" fill-opacity="0" stroke="#000000" stroke-width="2" stroke-opacity="1"></use></g></g><g><use xlink:href="#b2vYRrJQqN" opacity="1" fill="#41dfb0" fill-opacity="0"></use><g><use xlink:href="#b2vYRrJQqN" opacity="1" fill-opacity="0" stroke="#000000" stroke-width="2" stroke-opacity="1"></use></g></g><g><use xlink:href="#a1EMQq3lN" opacity="1" fill="#41dfb0" fill-opacity="0"></use><g><use xlink:href="#a1EMQq3lN" opacity="1" fill-opacity="0" stroke="#000000" stroke-width="2" stroke-opacity="1"></use></g></g><g><use xlink:href="#aWsAOvGJe" opacity="1" fill="#41dfb0" fill-opacity="0"></use><g><use xlink:href="#aWsAOvGJe" opacity="1" fill-opacity="0" stroke="#000000" stroke-width="2" stroke-opacity="1"></use></g></g><g><use xlink:href="#dE6NQoFFN" opacity="1" fill="#41dfb0" fill-opacity="0"></use><g><use xlink:href="#dE6NQoFFN" opacity="1" fill-opacity="0" stroke="#000000" stroke-width="2" stroke-opacity="1"></use></g></g><g><use xlink:href="#a6aFb2rdmy" opacity="1" fill="#41dfb0" fill-opacity="0"></use><g><use xlink:href="#a6aFb2rdmy" opacity="1" fill-opacity="0" stroke="#000000" stroke-width="2" stroke-opacity="1"></use></g></g><g><use xlink:href="#adXs7Az47" opacity="1" fill="#41dfb0" fill-opacity="0"></use><g><use xlink:href="#adXs7Az47" opacity="1" fill-opacity="0" stroke="#000000" stroke-width="2" stroke-opacity="1"></use></g></g></g></g></svg>