<?xml version="1.0" encoding="UTF-8" standalone="no"?>
<!DOCTYPE svg PUBLIC "-//W3C//DTD SVG 1.1//EN" "http://www.w3.org/Graphics/SVG/1.1/DTD/svg11.dtd">
<svg version="1.1" xmlns="http://www.w3.org/2000/svg" xmlns:xlink="http://www.w3.org/1999/xlink" preserveAspectRatio="xMidYMid meet" viewBox="0 0 640 640" width="640" height="640"><defs><path d="M620 20C620 20 620 20 620 20C620 380 620 580 620 620C620 620 620 620 620 620C260 620 60 620 20 620C20 620 20 620 20 620C20 260 20 60 20 20C20 20 20 20 20 20C380 20 580 20 620 20Z" id="agMHETrGf"></path><path d="M200 540L200 100" id="aD0s8shFQ"></path><path d="M440 100L280 300" id="fdMf8lgoH"></path><path d="M440 100L600 300" id="ajfb0PbEz"></path><path d="M440 540L440 100" id="b5ywmrSgGd"></path><path d="M360 340L200 540" id="clKEh7okQ"></path><path d="M40 340L200 540" id="falncQUX0R"></path></defs><g><g><g><use xlink:href="#agMHETrGf" opacity="1" fill="#000000" fill-opacity="0"></use><g><use xlink:href="#agMHETrGf" opacity="1" fill-opacity="0" stroke="#000000" stroke-width="2" stroke-opacity="1"></use></g></g><g><use xlink:href="#aD0s8shFQ" opacity="1" fill="#41dfb0" fill-opacity="0"></use><g><use xlink:href="#aD0s8shFQ" opacity="1" fill-opacity="0" stroke="#000000" stroke-width="2" stroke-opacity="1"></use></g></g><g><use xlink:href="#fdMf8lgoH" opacity="1" fill="#41dfb0" fill-opacity="0"></use><g><use xlink:href="#fdMf8lgoH" opacity="1" fill-opacity="0" stroke="#000000" stroke-width="2" stroke-opacity="1"></use></g></g><g><use xlink:href="#ajfb0PbEz" opacity="1" fill="#41dfb0" fill-opacity="0"></use><g><use xlink:href="#ajfb0PbEz" opacity="1" fill-opacity="0" stroke="#000000" stroke-width="2" stroke-opacity="1"></use></g></g><g><use xlink:href="#b5ywmrSgGd" opacity="1" fill="#41dfb0" fill-opacity="0"></use><g><use xlink:href="#b5ywmrSgGd" opacity="1" fill-opacity="0" stroke="#000000" stroke-width="2" stroke-opacity="1"></use></g></g><g><use xlink:href="#clKEh7okQ" opacity="1" fill="#41dfb0" fill-opacity="0"></use><g><use xlink:href="#clKEh7okQ" opacity="1" fill-opacity="0" stroke="#000000" stroke-width="2" stroke-opacity="1"></use></g></g><g><use xlink:href="#falncQUX0R" opacity="1" fill="#41dfb0" fill-opacity="0"></use><g><use xlink:href="#falncQUX0R" opacity="1" fill-opacity="0" stroke="#000000" stroke-width="2" stroke-opacity="1"></use></g></g></g></g></svg>